# xmcd
#
# Track frame offsets:
#	150
#	9482
#	18258
#	30069
#	42448
#	53736
#	63312
#	72617
#	81843
#	90915
#	99175
#	112354
#	148110
#	163951
#	177198
#	191223
#	207359
#	222679
#	236547
#
# Disc length: 3350 seconds
#
# Revision: 1
# Processed by: cddbd v1.5.1PL2 Copyright (c) Steve Scherf et al.
# Submitted via: audiograbber 1.83.01
#
DISCID=0d0d1413
DTITLE=Frank Sikora - Die neue Jazz-Harmonielehre CD1
DYEAR=2003
DGENRE=Jazz
TTITLE0=Abmaj7 Lydisch (ECM Space Sound)
TTITLE1=Fmaj7 Ionisch (Funky)
TTITLE2=D7 Mixolydisch (Salsa/Samba)
TTITLE3=Bb-7 Dorisch (4/4 Swing up)
TTITLE4=G7 Äolisch (Bossa Nova)
TTITLE5=E-7 Phrygisch (3/4 Swing)
TTITLE6=C#-7(b5) Lokrisch (4/4 HipHop)
TTITLE7=C6 Melodisch Moll
TTITLE8=Amaj7 Harmonisch Moll
TTITLE9=HTGT
TTITLE10=Messiaen Modus III
TTITLE11=Turnaround
TTITLE12=TWINBAY Eb-Dur Medium Swing
TTITLE13=TWINBAY F-Dur Up-tempo (na ja!) Swing
TTITLE14=TWINBAY Ab-Dur Ballade
TTITLE15=TWINBAY Bb-Dur Bossa Nova
TTITLE16=TWINBAY G-Dur Samba
TTITLE17=TWINBAY C-Dur 3/4 Swing
TTITLE18=TWINBAY D-Dur Shuffle Funk bzw. HipHop
EXTD=YEAR: 2003
EXTT0=
EXTT1=
EXTT2=
EXTT3=
EXTT4=
EXTT5=
EXTT6=
EXTT7=
EXTT8=
EXTT9=
EXTT10=
EXTT11=
EXTT12=
EXTT13=
EXTT14=
EXTT15=
EXTT16=
EXTT17=
EXTT18=
PLAYORDER=
